<svg xmlns="http://www.w3.org/2000/svg" viewBox="-2 -2 404 84"><defs></defs><path d="M383.6,2.9 L271.9,2.9 L16.4,2.9 Q3,2.9 3,15.9 L3,36.7 L3,64.1 Q3,68.55 4.55,71.45 Q7.55,77.1 16.4,77.1 L383.6,77.1 Q397,77.1 397,64.1 L397,40 L397,15.9 Q397,2.9 383.6,2.9 Z M16.4,0 L383.6,0 Q400,0 400,15.9 L400,64.1 Q400,80 383.6,80 L16.4,80 Q0,80 0,64.1 L0,15.9 Q0,0 16.4,0 Z" fill="#000000" opacity="1"/><path d="M271.9,2.9 L383.6,2.9 Q397,2.9 397,15.9 L397,40 Q222.45,77.8 4.55,71.45 Q3,68.55 3,64.1 L3,36.7 Q13.1,7.9 271.9,2.9 Z" fill="#915F39" opacity="1"/><path d="M397,40 L397,64.1 Q397,77.1 383.6,77.1 L16.4,77.1 Q7.55,77.1 4.55,71.45 Q222.45,77.8 397,40 Z" fill="#7E5435" opacity="1"/><path d="M3,36.7 L3,15.9 Q3,2.9 16.4,2.9 L271.9,2.9 Q13.1,7.9 3,36.7 Z" fill="#A3683C" opacity="1"/><g transform="matrix(1,0,0,1,24.2,24.75)"></g><g transform="matrix(1,0,0,1,-22.25,21.95)"></g><g transform="matrix(2.48757934570313,0,0,0.99993896484375,0,0)"></g></svg>