<svg xmlns="http://www.w3.org/2000/svg" viewBox="0 0 480 800"><defs></defs><g transform="matrix(1,0,0,1,-19.95,-53.5)"><rect x="59.95" y="178.0" width="400.0" height="572.0" rx="15" fill="#000000" opacity="0.8" /></g><g transform="matrix(1,0,0,1,82,37.5)"><path fill="#FFFFFF" d="M561 696Q570 696 571 707Q578 768 657 768Q696 768 716.5 753.5Q737 739 742 706Q743 696 753 696H900Q943 696 956.5 679.5Q970 663 970.0 616.0Q970 569 957.5 552.5Q945 536 900 536H787Q770 536 750.5 546.0Q731 556 697 556Q645 556 614 526Q593 506 583.0 506.0Q573 506 570 524Q567 536 560 536H471Q462 536 461 525Q457 494 436.5 480.0Q416 466 375.0 466.0Q334 466 314.0 480.0Q294 494 290 526Q289 536 279 536H127Q82 536 69.5 552.5Q57 569 57.0 616.0Q57 663 70.5 679.5Q84 696 127 696H279Q289 696 290 706Q295 738 315.5 753.0Q336 768 375.5 768.0Q415 768 435.5 753.5Q456 739 461 708Q462 696 471 696ZM825 187Q820 187 820 183Q820 175 852.0 118.5Q884 62 932.5 11.0Q981 -40 981.0 -72.0Q981 -104 951.5 -136.0Q922 -168 886 -168Q838 -168 775.5 -102.0Q713 -36 713 -18Q713 -8 724.0 14.5Q735 37 735.0 43.5Q735 50 727.5 53.0Q720 56 715.5 56.0Q711 56 708 50Q675 -23 627.5 -81.5Q580 -140 552.0 -156.0Q524 -172 494.5 -172.0Q465 -172 437.5 -148.0Q410 -124 410 -88Q410 -36 458 10Q499 50 528.5 109.0Q558 168 558 183Q558 187 550 187H517Q477 187 461.0 205.0Q445 223 445.0 265.5Q445 308 461.0 326.0Q477 344 517 344H566Q576 344 576 355V446Q576 454 597.5 465.5Q619 477 639 504Q644 511 659.0 517.0Q674 523 698.0 523.0Q722 523 722.0 512.0Q722 501 706 485Q676 456 676.0 418.5Q676 381 702.0 353.5Q728 326 743.5 304.5Q759 283 780.0 271.0Q801 259 821 259Q861 259 899 291Q921 310 932 310Q949 310 949.0 266.5Q949 223 933.0 205.0Q917 187 877 187ZM445 67Q445 43 434 34Q376 -19 376 -89Q376 -104 378.5 -115.5Q381 -127 381.0 -136.5Q381 -146 371.0 -153.5Q361 -161 319.5 -165.5Q278 -170 249.5 -170.0Q221 -170 181.0 -160.5Q141 -151 127.0 -131.5Q113 -112 113.0 -70.5Q113 -29 125.0 -20.0Q137 -11 168 -11L210 -12Q249 -12 261.0 -1.5Q273 9 273.0 34.0Q273 59 270.5 59.0Q268 59 265 57Q165 3 115 3Q78 3 60.0 31.0Q42 59 42 83Q42 127 107 158Q180 189 213.5 208.0Q247 227 252.5 230.0Q258 233 258.0 236.0Q258 239 255.5 243.5Q253 248 247.5 248.0Q242 248 233 242Q170 205 128.5 205.0Q87 205 65.5 239.0Q44 273 44 302Q44 347 100.5 368.5Q157 390 157.0 396.0Q157 402 145 410Q107 436 107 467Q107 484 119.5 495.5Q132 507 151 507H240Q260 507 262 499Q271 463 298.5 447.5Q326 432 379.5 432.0Q433 432 461 453Q470 460 475.5 460.0Q481 460 481.0 430.5Q481 401 474.5 389.0Q468 377 439.5 357.5Q411 338 411 258Q411 213 428.0 188.0Q445 163 445 148ZM780 489Q812 489 857.5 445.5Q903 402 903 366Q903 337 875.5 315.0Q848 293 829.0 293.0Q810 293 799.5 299.0Q789 305 770.5 328.5Q752 352 730.5 373.0Q709 394 709.0 417.5Q709 441 733.0 465.0Q757 489 780 489Z" transform="translate(28,59.8) scale(0.065,-0.065)"/><path fill="#FFFFFF" d="M604 748Q642 748 655.5 731.0Q669 714 669.0 706.5Q669 699 643 699Q554 699 513.0 669.5Q472 640 472.0 564.5Q472 489 498.5 359.5Q525 230 555 154Q562 138 562.0 130.0Q562 122 547 103L485 22Q469 1 460.0 -20.0Q451 -41 451 -61Q451 -103 494 -148Q502 -157 502.0 -163.0Q502 -169 466 -169Q399 -169 377.5 -150.5Q356 -132 356 -70Q356 -58 354.0 -53.0Q352 -48 344 -49L148 -73Q133 -75 121 -75Q72 -75 53.5 -42.0Q35 -9 35 35Q35 94 79 105Q94 109 98.5 114.0Q103 119 103 129V542Q103 554 88 558Q64 564 50.5 589.5Q37 615 37 653Q37 748 117 748ZM359 527Q370 527 370 545Q370 559 359 559H280Q267 559 267.0 547.0Q267 535 269.0 531.0Q271 527 278 527ZM359 330Q370 330 370.0 346.5Q370 363 359 363H280Q267 363 267.0 346.5Q267 330 278 330ZM359 136Q370 136 370.0 154.5Q370 173 359 173H280Q267 173 267.0 154.5Q267 136 278 136ZM865 663Q914 663 935.0 640.0Q956 617 956 567Q956 493 930.0 390.0Q904 287 848 162Q845 154 845.0 149.5Q845 145 846.0 141.5Q847 138 880.0 100.5Q913 63 941.0 34.5Q969 6 969.0 -37.0Q969 -80 939.0 -114.0Q909 -148 872 -148Q845 -148 815.0 -124.5Q785 -101 743 -55Q738 -50 732.0 -50.0Q726 -50 721 -57Q644 -154 588 -154Q553 -154 523.0 -122.5Q493 -91 493.0 -60.0Q493 -29 528 16Q582 82 594.0 99.5Q606 117 606.0 124.0Q606 131 604 136Q571 212 541.5 346.0Q512 480 512 542Q512 663 640 663ZM731 346Q740 346 751.5 397.0Q763 448 763.0 458.5Q763 469 754.5 472.0Q746 475 724.5 475.0Q703 475 703.0 463.0Q703 451 712.5 406.0Q722 361 725.0 353.5Q728 346 731 346Z" transform="translate(93,59.8) scale(0.065,-0.065)"/><path fill="#FFFFFF" d="M575 107Q560 107 554.0 98.5Q548 90 548.0 83.0Q548 76 560.5 69.0Q573 62 641.5 51.5Q710 41 789 41L855 42Q903 42 924.5 22.5Q946 3 946.0 -44.0Q946 -91 931.5 -115.0Q917 -139 883.5 -147.5Q850 -156 755.5 -156.0Q661 -156 583.5 -141.0Q506 -126 436 -91Q423 -85 412.5 -85.0Q402 -85 394 -91Q356 -120 275.5 -148.0Q195 -176 148.5 -176.0Q102 -176 84.0 -139.0Q66 -102 66.0 -71.5Q66 -41 85.0 -19.5Q104 2 135.5 6.5Q167 11 208.0 22.5Q249 34 249 48Q249 53 243 59Q225 77 225 100Q225 132 257.0 160.5Q289 189 323 189Q341 189 352.0 180.5Q363 172 369.5 172.0Q376 172 381.0 179.0Q386 186 386.0 193.0Q386 200 367.0 211.5Q348 223 322 223Q282 223 246.0 196.5Q210 170 197 137Q190 120 176.5 120.0Q163 120 137.0 144.5Q111 169 111 224V419Q111 494 136.0 523.0Q161 552 221 552H380Q399 552 399.0 569.5Q399 587 379 587H221Q171 587 148.0 576.0Q125 565 112 565Q87 565 72.0 588.0Q57 611 57.0 655.0Q57 699 77.0 723.5Q97 748 134 748H854Q897 748 914.0 727.5Q931 707 931.0 662.0Q931 617 917.0 592.0Q903 567 878 567Q865 567 850 574Q822 587 758 587H599Q587 587 583.5 583.5Q580 580 580.0 566.0Q580 552 597 552H758Q830 552 849.5 527.5Q869 503 869 439V240Q869 171 838.0 139.0Q807 107 739 107ZM379 390Q392 390 395.5 394.5Q399 399 399.0 412.5Q399 426 395.0 431.5Q391 437 379 437H301Q289 437 285.5 431.5Q282 426 282.0 413.5Q282 401 286.0 395.5Q290 390 301 390ZM679 390Q692 390 695.5 394.0Q699 398 699.0 412.0Q699 426 695.0 431.5Q691 437 679 437H601Q589 437 585.5 431.5Q582 426 582.0 413.5Q582 401 586.0 395.5Q590 390 601 390ZM379 246Q392 246 395.5 250.5Q399 255 399.0 268.5Q399 282 395.0 287.5Q391 293 379 293H301Q289 293 285.5 287.5Q282 282 282.0 269.5Q282 257 286.0 251.5Q290 246 301 246ZM679 246Q692 246 695.5 250.0Q699 254 699.0 268.0Q699 282 695.0 287.5Q691 293 679 293H601Q589 293 585.5 287.5Q582 282 582.0 269.5Q582 257 586.0 251.5Q590 246 601 246Z" transform="translate(158,59.8) scale(0.065,-0.065)"/><path fill="#FFFFFF" d="M487 686Q517 686 534.5 666.0Q552 646 552 609Q552 538 517 526Q501 520 494.5 514.5Q488 509 488.0 494.0Q488 479 491.0 473.5Q494 468 502 468Q528 468 540.0 448.5Q552 429 552.0 389.5Q552 350 536.5 333.5Q521 317 487 317H407Q393 317 393.0 302.0Q393 287 408 287H473Q549 287 549 208Q549 176 538.5 158.0Q528 140 514.5 140.0Q501 140 491 150Q430 211 395.5 211.0Q361 211 323.5 174.0Q286 137 286.0 104.0Q286 71 314 45L384 -20Q395 -30 395.0 -40.0Q395 -50 387.5 -63.5Q380 -77 380.0 -91.0Q380 -105 382.5 -113.0Q385 -121 385 -127Q385 -167 307.5 -167.0Q230 -167 196.5 -159.0Q163 -151 151.5 -132.0Q140 -113 140.0 -77.5Q140 -42 147.0 -23.5Q154 -5 165.5 0.5Q177 6 203 6Q240 6 251.5 31.5Q263 57 263 72Q263 104 223.5 143.0Q184 182 153.0 182.0Q122 182 93 151Q80 138 66.0 138.0Q52 138 42.5 156.0Q33 174 33 207Q33 287 95 287H197Q204 287 207.0 290.0Q210 293 210.0 305.0Q210 317 198 317H96Q62 317 47.0 335.0Q32 353 32.0 393.0Q32 433 46.0 450.5Q60 468 89.5 468.0Q119 468 119.0 481.0Q119 494 116.0 505.5Q113 517 110.0 520.5Q107 524 100 525Q48 535 48 603Q48 686 115 686H191Q200 686 202.5 689.0Q205 692 205 703Q205 729 234.0 747.5Q263 766 312.0 766.0Q361 766 382.0 750.0Q403 734 407 699Q408 692 410.5 689.0Q413 686 421 686ZM301 457Q329 457 332.0 463.0Q335 469 338.5 491.5Q342 514 342.0 523.0Q342 532 335.0 535.0Q328 538 306.5 538.0Q285 538 279.5 536.0Q274 534 274.0 525.0Q274 516 278.5 489.0Q283 462 286.5 459.5Q290 457 301 457ZM892 466Q936 466 951.5 443.0Q967 420 967.0 373.5Q967 327 952.0 304.5Q937 282 910 282Q896 282 896 258V-81Q896 -128 878.0 -147.5Q860 -167 805.5 -167.0Q751 -167 733.0 -151.0Q715 -135 715 -81V263Q715 278 701.0 278.0Q687 278 687 262Q684 127 658.0 19.5Q632 -88 601.0 -127.0Q570 -166 530.0 -166.0Q490 -166 452.0 -147.5Q414 -129 414 -94Q414 -77 424.5 -65.0Q435 -53 451 -52Q481 -51 518.5 -13.5Q556 24 556 54Q556 72 543 92Q537 101 537.0 109.0Q537 117 557 134Q583 156 583 210Q583 255 562 283Q556 291 556.0 296.5Q556 302 564 311Q584 334 584 390Q584 422 575.5 448.5Q567 475 555.0 483.5Q543 492 543.0 496.5Q543 501 555.0 512.0Q567 523 576.0 551.0Q585 579 585.0 607.5Q585 636 579.0 650.0Q573 664 573 668Q573 681 609 689Q744 713 840 741Q854 745 866 745Q909 745 931.5 706.5Q954 668 954.0 632.5Q954 597 937.0 573.5Q920 550 852.5 532.0Q785 514 711 506Q698 504 695.0 499.5Q692 495 692.0 484.5Q692 474 695.0 470.0Q698 466 707 466ZM393 175Q419 175 469.0 127.5Q519 80 519.0 57.5Q519 35 494.5 9.0Q470 -17 448.0 -17.0Q426 -17 390 18L337 69Q321 84 321.0 104.0Q321 124 346.5 149.5Q372 175 393 175ZM152 148Q172 148 200.5 120.5Q229 93 229 70Q229 59 224.0 50.0Q219 41 215.0 40.0Q211 39 191 39Q152 39 132.5 19.5Q113 0 109 -44Q107 -57 94.5 -57.0Q82 -57 57.0 -33.0Q32 -9 32.0 15.5Q32 40 66.0 75.0Q100 110 117.0 129.0Q134 148 152 148Z" transform="translate(223,59.8) scale(0.065,-0.065)"/></g><g transform="matrix(1,0,0,1,25.3,717.4)"><rect x="1.3" y="2.85" width="160.0" height="60.0" rx="15" fill="#000000" opacity="1" /></g><g transform="matrix(1.0062255859375,0,0,0.787490844726563,26.6,719.25)"></g><path d="M60.8,737.3 L46.5,752.15 L61.3,765.05" fill="none" stroke="#FFFFFF" stroke-opacity="1" stroke-width="8" stroke-linejoin="round" stroke-linecap="round"/><g transform="matrix(1,0,0,1,51.05,731.2)"><path fill="#FFFFFF" d="M48 3H938V579H206V731H938V1187H128V1339H1912V1187H1110V731H1842V579H1110V3H2000V-145H48ZM862 1635 1010 1711Q1132 1529 1186 1429L1028 1345Q920 1545 862 1635Z" transform="translate(19.5,32.2) scale(0.0170898,-0.0170898)"/><path fill="#FFFFFF" d="M2020 -35Q1944 -117 1896 -187Q1386 -17 1090 359V-287H936V359Q648 19 144 -211Q98 -151 28 -75Q452 69 760 361H64V501H936V653H1090V501H1994V361H1250Q1540 67 2020 -35ZM48 1509H608V1697H764V1509H1284V1697H1440V1509H2006V1367H1440V1253H1284V1367H764V1235H608V1367H48ZM186 1017Q174 1081 158 1157Q1082 1167 1792 1219L1816 1079Q1084 1033 186 1017ZM1308 689Q1444 811 1614 1015L1746 911Q1508 671 1414 587ZM296 893 418 969Q498 869 626 671L488 583Q398 743 296 893ZM844 957 970 1019Q1066 879 1136 749L994 673Q952 781 844 957Z" transform="translate(54.5,32.2) scale(0.0170898,-0.0170898)"/><path fill="#FFFFFF" d="M40 291H946V517H392V423H240V1393H655Q559 1505 448 1623L562 1717Q710 1575 822 1455L748 1393H1217Q1327 1539 1440 1711L1600 1625Q1497 1500 1401 1393H1810V423H1658V517H1102V291H2008V147H1102V-275H946V147H40ZM1102 657H1658V889H1102ZM392 657H946V889H392ZM1658 1253H1102V1025H1658ZM392 1025H946V1253H392Z" transform="translate(89.5,32.2) scale(0.0170898,-0.0170898)"/></g><g transform="matrix(1,0,0,1,60,464.95)"></g><g transform="matrix(1,0,0,1,163.2,246.1)"><rect x="1.3" y="2.85" width="151.0" height="60.0" rx="15" fill="#000000" opacity="0.8" /></g><g transform="matrix(1,0,0,1,168,258.4)"><path fill="#FFFFFF" d="M52 1537H1996V1373H1024V937L1116 1065Q1574 795 1884 579L1766 417Q1456 655 1024 919V-255H842V1373H52Z" transform="translate(2,32.2) scale(0.0170898,-0.0170898)"/><path fill="#FFFFFF" d="M922 -133Q1159 29 1348 258Q1246 566 1218 1035H40V1169H538V1355H122V1481H538V1685H686V1481H1080V1355H686V1169H1210Q1198 1407 1188 1695H1342Q1343 1414 1357 1169H2022V1035H1365Q1386 666 1460 406Q1611 621 1726 885L1864 821Q1710 490 1518 236Q1580 89 1664 -11Q1716 -71 1760 -71Q1814 -71 1832 9Q1856 117 1878 281Q1958 245 2022 227Q1996 57 1964 -75Q1914 -253 1786 -253Q1640 -253 1508 -67Q1454 7 1410 102Q1238 -95 1040 -237Q980 -169 922 -133ZM322 471H596V655H738V471H1116V345H738V159Q921 174 1124 191Q1118 127 1118 61Q938 49 738 32V-261H596V19Q361 -1 100 -29L68 115Q306 128 596 149V345H156V475Q237 580 315 709H88V835H388Q437 924 484 1023L632 977Q591 902 552 835H1132V709H477Q394 573 322 471ZM1476 1549 1574 1647Q1776 1495 1902 1377L1788 1261Q1652 1407 1476 1549Z" transform="translate(37,32.2) scale(0.0170898,-0.0170898)"/><path fill="#FFFFFF" d="M1296 835H1522V1195H1666V835H1942V695H1666V437H1996V297H1666V-17H1522V297H1080V437H1522V695H1142V835Q1235 1059 1312 1305H1112V1445H1353Q1391 1576 1424 1713L1578 1683Q1546 1564 1509 1445H1974V1305H1465Q1389 1072 1296 835ZM1368 -57Q1638 -69 2018 -51Q1986 -131 1960 -205Q1608 -213 1354 -199Q1074 -189 926 23Q870 -53 732 -265L630 -123Q760 34 850 149V839H688V983H994V149Q1118 -53 1368 -57ZM666 295Q684 205 700 147Q512 -31 402 -143Q386 -163 346 -217L236 -93Q292 -31 292 89V501H36V641H292V885H210V1025H634V885H438V641H688V501H438V81Q566 195 666 295ZM32 1009Q192 1273 286 1697L436 1665Q399 1520 354 1387H696V1247H303Q219 1032 110 853Q76 927 32 1009ZM880 1681Q978 1437 1040 1239Q960 1213 888 1187Q828 1401 742 1637Z" transform="translate(72,32.2) scale(0.0170898,-0.0170898)"/><path fill="#FFFFFF" d="M576 -117Q966 -60 1211 71Q1024 155 810 247Q896 358 969 469H640V603H1053Q1117 711 1170 819L1318 757Q1270 677 1223 603H1992V469H1729Q1650 249 1495 98Q1750 -8 1990 -113L1902 -261Q1677 -142 1372 -1Q1104 -183 652 -269Q624 -203 576 -117ZM32 629Q174 668 308 708V1165H56V1309H308V1683H456V1309H686V1165H456V754Q551 784 642 815Q644 725 654 659Q551 626 456 594V-23Q456 -239 262 -241Q188 -243 74 -239Q66 -157 50 -73Q170 -85 220 -85Q308 -85 308 21V545Q171 499 52 457ZM646 983H1425Q1552 1159 1650 1313L1800 1231Q1696 1106 1589 983H2006V849H646ZM724 1469H1289Q1242 1560 1190 1649L1324 1711Q1388 1603 1446 1493L1395 1469H1958V1335H724ZM1018 291Q1185 225 1345 159Q1502 286 1568 469H1137Q1076 376 1018 291ZM904 1233 1020 1311Q1114 1201 1202 1079L1074 993Q998 1117 904 1233Z" transform="translate(107,32.2) scale(0.0170898,-0.0170898)"/></g><g transform="matrix(1,0,0,0.875,160,244)"></g><g transform="matrix(1,0,0,1,163.2,372.1)"><rect x="1.3" y="2.85" width="151.0" height="60.0" rx="15" fill="#000000" opacity="0.8" /></g><g transform="matrix(1,0,0,1,168,384.4)"><path fill="#FFFFFF" d="M34 -135Q400 -74 624 53Q453 171 314 363L419 443H264V1281H966Q967 1367 968 1465H106V1605H1942V1465H1122Q1122 1366 1121 1281H1784V345H1632V443H1072Q1020 206 907 78Q1308 -69 2024 -67Q1974 -155 1942 -227Q1148 -205 775 -32Q545 -184 126 -277Q86 -207 34 -135ZM416 929H962Q964 1025 965 1145H416ZM960 795H416V579H943Q956 677 960 795ZM1095 579H1632V795H1114Q1109 679 1095 579ZM1632 1145H1120Q1119 1024 1117 929H1632ZM758 145Q866 238 917 443H427Q565 251 758 145Z" transform="translate(2,32.2) scale(0.0170898,-0.0170898)"/><path fill="#FFFFFF" d="M1150 1535Q1564 1539 1914 1617L1966 1463Q1570 1411 1292 1395V929H2022V793H1736V-255H1588V793H1292V695Q1292 81 998 -261Q950 -199 892 -133Q1150 149 1150 701ZM84 637H492V827H636V637H1028V509H636V-13Q636 -225 432 -225Q346 -225 238 -223Q230 -157 216 -71Q332 -83 398 -83Q492 -83 492 19V509H84ZM28 1011H350Q265 1146 190 1243L298 1319Q364 1239 468 1093L355 1011H619Q728 1168 820 1321L962 1241Q865 1116 777 1011H1080V883H28ZM92 1475H524Q481 1557 426 1653L554 1713Q616 1611 670 1507L603 1475H1028V1347H92ZM238 419 374 355Q266 129 160 -53Q102 -17 28 19Q126 171 238 419ZM814 409Q926 257 1010 129L882 41Q794 195 696 331Z" transform="translate(37,32.2) scale(0.0170898,-0.0170898)"/><path fill="#FFFFFF" d="M42 -127Q759 128 897 607H82V759H926Q930 802 930 1141H200V1293H680Q508 1482 386 1597L502 1701Q674 1547 816 1407L688 1293H1165Q1320 1512 1438 1703L1604 1611Q1466 1435 1350 1293H1856V1141H1100Q1100 847 1097 759H1974V607H1125Q1360 104 2010 -83Q1928 -167 1862 -245Q1246 -5 1025 477Q862 9 158 -271Q106 -203 42 -127Z" transform="translate(72,32.2) scale(0.0170898,-0.0170898)"/><path fill="#FFFFFF" d="M62 931H860V1695H1028V1397H1868V1249H1028V931H1994V779H62ZM858 707H1026V477L1108 583Q1584 365 1882 197L1778 49Q1506 215 1026 447V-275H858Z" transform="translate(107,32.2) scale(0.0170898,-0.0170898)"/></g><g transform="matrix(1,0,0,0.875,160,370)"></g></svg>